<svg xmlns="http://www.w3.org/2000/svg" width="130" height="130" viewBox="0 0 130 130">
  <path fill="#FFD200" fill-rule="evenodd" d="M72.1545397,4.40549874 L129.162936,118.422291 C131.13885,122.374119 129.537055,127.179504 125.585227,129.155418 C124.474384,129.710839 123.249479,130 122.007518,130 L7.99072588,130 C3.57244788,130 -0.00927411787,126.418278 -0.00927411787,122 C-0.00927411787,120.758039 0.279886616,119.533135 0.835308354,118.422291 L57.8437046,4.40549874 C59.8196186,0.45367076 64.6250029,-1.14812401 68.5768309,0.827789976 C70.1250501,1.60189959 71.38043,2.85727952 72.1545397,4.40549874 Z M65.2927103,114.094334 C67.9324455,114.094334 70.325663,113.182962 72.3023692,111.42589 C74.4160017,109.547105 75.5,106.946207 75.5,103.887045 C75.5,101.098134 74.4536962,98.6165356 72.4554676,96.6632111 C70.4769777,94.7291816 67.9924598,93.7224653 65.2072897,93.7224653 C62.4087928,93.7224653 59.9250073,94.7396788 57.9711104,96.6935757 C56.0189191,98.645767 55,101.11478 55,103.887045 C55,106.98853 56.1016591,109.609471 58.2524389,111.476632 C60.2405607,113.202584 62.6418672,114.094334 65.2927103,114.094334 Z M55.3924921,51.1504776 L56.7648859,71.6790679 C57.0662595,74.8006617 57.5820413,77.1350853 58.3822549,78.8688815 C59.6093543,81.5275968 62.0323615,83.0202112 65.0364484,83.0202112 C67.9940106,83.0202112 70.4021978,81.5272275 71.6963229,78.8827111 C72.5833422,77.0701065 73.1158284,74.7230797 73.3525165,71.7475713 L75.1866522,50.720263 C75.3939869,48.7107347 75.5,46.6731652 75.5,44.6668251 C75.5,40.9082965 74.9832566,37.9461306 73.8771975,35.6768023 C72.380006,32.6049783 69.4086108,31 65.5489722,31 C62.48997,31 59.8532027,32.0842613 57.8830676,34.1902678 C55.9534714,36.2529395 55,39.0144853 55,42.3177578 C55,44.1514665 55.13038,47.0732611 55.3924921,51.1504776 Z"/>
</svg>
